<svg width="100%" height="100%" viewBox="0 0 781 552" fill="none" xmlns="http://www.w3.org/2000/svg">
<g id="laptop guy">
<g id="rest">
<path id="Vector" opacity="0.2" d="M707.047 198.496H661.97V217.433H707.047V198.496Z" fill="#057B03"/>
<path id="Vector 2" opacity="0.2" d="M710.515 221.642H665.437V240.579H710.515V221.642Z" fill="#057B03"/>
<path id="Vector 3" opacity="0.2" d="M673.239 61.0216H628.162V79.9593H673.239V61.0216Z" fill="#057B03"/>
<path id="Vector 4" opacity="0.2" d="M705.313 82.7649H660.236V101.703H705.313V82.7649Z" fill="#057B03"/>
<path id="Vector 5" opacity="0.2" d="M618.626 62.4244H573.549V81.3621H618.626V62.4244Z" fill="#057B03"/>
<path id="Vector 6" opacity="0.2" d="M763.394 104.508H718.316V123.446H763.394V104.508Z" fill="#057B03"/>
<path id="Vector 7" opacity="0.2" d="M708.781 105.911H663.704V124.849H708.781V105.911Z" fill="#057B03"/>
<path id="Vector 8" opacity="0.2" d="M650.7 84.1677H605.623V103.105H650.7V84.1677Z" fill="#057B03"/>
<path id="Vector 9" opacity="0.2" d="M760.793 250.399H715.716V269.337H760.793V250.399Z" fill="#057B03"/>
<path id="Vector 10" opacity="0.2" d="M706.18 251.802H661.103V270.74H706.18V251.802Z" fill="#057B03"/>
<g id="plant">
<path id="Vector 11" d="M113.344 193.586C113.344 193.586 176.877 244.991 141.014 321.24C105.152 397.489 202.484 524.393 202.484 524.393C202.484 524.393 201.444 524.267 199.511 523.993C69.029 505.357 4.19569 384.611 76.7876 294.938C103.73 261.558 125.87 222.441 113.344 193.586Z" fill="#057B03"/>
<path id="Vector 12" d="M113.344 193.586C113.344 193.586 149.206 256.599 113.344 307.998C77.4811 359.396 107.197 503.688 202.493 524.393" stroke="#292A37" stroke-width="2" stroke-miterlimit="10"/>
<path id="Vector 13" d="M0.182068 401.494C0.182068 401.494 72.6786 392.151 79.2842 444.721C85.8897 497.291 218.695 504.578 218.695 504.578C218.695 504.578 217.828 505.055 216.207 505.918C106.556 564.134 1.74244 543.015 17.5455 465.686C23.4142 436.936 22.9288 408.059 0.182068 401.494Z" fill="#057B03"/>
<path id="Vector 14" opacity="0.2" d="M0.182068 401.494C0.182068 401.494 72.6786 392.151 79.2842 444.721C85.8897 497.291 218.695 504.578 218.695 504.578C218.695 504.578 217.828 505.055 216.207 505.918C106.556 564.134 1.74244 543.015 17.5455 465.686C23.4142 436.936 22.9288 408.059 0.182068 401.494Z" fill="#F5F5F5"/>
<path id="Vector 15" d="M0.182068 401.494C0.182068 401.494 56.4508 411.489 51.8303 452.885C47.2099 494.282 135.397 543.934 218.695 504.578" stroke="#292A37" stroke-width="2" stroke-miterlimit="10"/>
</g>
<path id="Vector 16" opacity="0.2" d="M45.6235 199.197H0.546143V218.135H45.6235V199.197Z" fill="#057B03"/>
<path id="Vector 17" opacity="0.2" d="M77.6978 220.94H32.6204V239.878H77.6978V220.94Z" fill="#057B03"/>
<path id="Vector 18" opacity="0.2" d="M321.289 0H276.212V18.9377H321.289V0Z" fill="#057B03"/>
<path id="Vector 19" opacity="0.2" d="M676.707 349.296H631.629V368.234H676.707V349.296Z" fill="#057B03"/>
<path id="Vector 20" opacity="0.2" d="M81.1653 244.086H36.0879V263.024H81.1653V244.086Z" fill="#057B03"/>
<path id="Vector 21" opacity="0.2" d="M353.363 21.7433H308.286V40.6811H353.363V21.7433Z" fill="#057B03"/>
<path id="Vector 22" opacity="0.2" d="M188.657 150.099H143.58V169.037H188.657V150.099Z" fill="#057B03"/>
<path id="Vector 23" opacity="0.2" d="M220.732 171.842H175.654V190.78H220.732V171.842Z" fill="#057B03"/>
<path id="Vector 24" opacity="0.2" d="M306.552 159.919H261.475V178.856H306.552V159.919Z" fill="#057B03"/>
<path id="Vector 25" opacity="0.2" d="M224.199 194.989H179.122V213.926H224.199V194.989Z" fill="#057B03"/>
<path id="Vector 26" opacity="0.2" d="M737.388 349.296H692.31V368.234H737.388V349.296Z" fill="#057B03"/>
<path id="Vector 27" d="M389.243 163.629C389.243 163.629 404.847 229.61 389.243 247.404C373.639 265.198 436.921 272.241 436.921 272.241L502.422 252.966L511.585 205.517C511.585 205.517 471.709 187.35 479.97 150.653L389.243 163.629Z" fill="#FEB286"/>
<path id="Vector 28" d="M582.573 386.042C582.573 386.042 586.699 400.498 564.247 403.093C550.99 404.671 537.508 404.541 524.302 402.708L519.352 366.396H571.581L582.573 386.042Z" fill="#FEB286"/>
<path id="Vector 29" d="M186.118 367.539C186.118 367.539 176.2 400.147 198.652 403.093C221.104 406.039 303.544 406.06 303.544 406.06V367.483L266.217 373.936L231.178 346.75L186.118 367.539Z" fill="#FEB286"/>
<path id="Vector 30" opacity="0.1" d="M394.063 184.945L306.327 199.954C306.327 199.954 272.883 201.07 251.35 237.023C229.817 272.977 183.083 375.662 183.083 375.662C183.083 375.662 222.96 343.04 269.675 377.885L300.831 332.294L293.956 404.58H535.363V370.471C535.363 370.471 585.754 392.341 582.096 404.573C582.096 404.573 625.223 314.668 615.904 273.812C613.099 261.181 611.378 248.408 610.755 235.585C610.205 225.024 605.628 214.86 597.653 206.487C589.679 198.115 578.697 191.944 566.215 188.823C561.673 187.694 556.679 186.635 551.131 185.688C499.362 176.794 486.116 185.688 486.116 185.688C486.116 185.688 476.086 212.089 476.268 224.054C476.494 239.436 449.239 249.634 449.239 249.634C449.239 249.634 408.921 241.849 407.092 235.55C405.263 229.252 390.838 192.358 394.063 184.945Z" fill="black"/>
<path id="Vector 31" d="M394.063 183.465L306.327 198.475C306.327 198.475 272.883 199.59 251.35 235.543C229.817 271.497 183.075 374.196 183.075 374.196C183.075 374.196 222.951 341.574 269.667 376.419L300.822 330.828L293.948 403.093H535.363V368.991C535.363 368.991 585.754 390.861 582.096 403.093C582.096 403.093 625.223 313.188 615.904 272.332C613.099 259.701 611.378 246.928 610.755 234.106C610.205 223.544 605.628 213.38 597.653 205.007C589.679 196.635 578.697 190.465 566.215 187.343C561.673 186.214 556.679 185.155 551.131 184.208C499.362 175.314 486.116 184.208 486.116 184.208C486.116 184.208 476.086 210.609 476.268 222.575C476.494 237.956 449.239 248.155 449.239 248.155C449.239 248.155 408.921 240.369 407.092 234.07C405.263 227.772 390.838 190.878 394.063 183.465Z" fill="#375A7F"/>
<path id="Vector 32" opacity="0.1" d="M314.787 272.058C314.787 272.058 301.047 301.713 320.283 328.401C339.519 355.09 303.336 366.214 303.336 366.214" fill="black"/>
<path id="Vector 33" opacity="0.1" d="M537.444 245.37C537.444 245.37 561.265 269.835 545.687 291.704C530.11 313.574 531.029 366.214 531.029 366.214" fill="black"/>
<path id="Vector 34" d="M293.714 388.083H558.517C564.35 388.083 569.944 389.958 574.068 393.295C578.193 396.632 580.51 401.158 580.51 405.878H271.73C271.73 401.16 274.046 396.635 278.168 393.298C282.291 389.961 287.882 388.085 293.714 388.083Z" fill="#292A37"/>
<path id="Vector 35" d="M320.656 265.753H531.583C536.023 265.753 540.419 266.46 544.521 267.835C548.623 269.21 552.35 271.224 555.489 273.765C558.629 276.305 561.119 279.32 562.818 282.639C564.517 285.958 565.391 289.515 565.391 293.107V392.158H286.848V293.107C286.848 285.852 290.41 278.894 296.75 273.765C303.09 268.635 311.69 265.753 320.656 265.753Z" fill="#292A37"/>
<path id="Vector 36" d="M425.886 347.865C434.997 347.865 442.382 341.889 442.382 334.518C442.382 327.146 434.997 321.17 425.886 321.17C416.775 321.17 409.389 327.146 409.389 334.518C409.389 341.889 416.775 347.865 425.886 347.865Z" fill="white"/>
<path id="Vector 37" d="M735.966 406.109H64.3913V552H735.966V406.109Z" fill="#D6D6E3"/>
<path id="Vector 38" opacity="0.1" d="M735.966 415.929H64.3913V434.867H735.966V415.929Z" fill="black"/>
<path id="Vector 39" d="M781 404.005H19.3399V422.943H781V404.005Z" fill="#D6D6E3"/>
</g>
<g id="head">
<path id="shadow" opacity="0.1" d="M483.119 176.316C479.434 167.874 478.608 158.788 480.727 150L390 162.969C390 162.969 391.309 168.517 392.791 176.828C398.653 181.75 405.691 185.656 413.478 188.308C421.264 190.96 429.635 192.302 438.083 192.255C446.53 192.207 454.877 190.769 462.617 188.029C470.356 185.289 474.951 181.304 480.727 176.316H483.119Z" fill="black"/>
<g id="face">
<path id="Vector 40" d="M426.123 23.005C443.497 23.005 460.16 28.5894 472.445 38.5297C484.731 48.47 491.633 61.9519 491.633 76.0096V98.6227H360.614V76.0096C360.614 61.9519 367.515 48.47 379.801 38.5297C392.086 28.5894 408.749 23.005 426.123 23.005Z" fill="#375A7F"/>
<path id="Vector 41" d="M426.583 147.552C467.823 147.552 501.255 128.965 501.255 106.036C501.255 83.1079 467.823 64.5207 426.583 64.5207C385.342 64.5207 351.91 83.1079 351.91 106.036C351.91 128.965 385.342 147.552 426.583 147.552Z" fill="#375A7F"/>
<path id="Vector 42" d="M488.659 125.128C488.588 138.356 482.095 151.031 470.58 160.42C459.065 169.81 443.45 175.162 427.103 175.322C410.756 175.482 394.986 170.438 383.194 161.276C371.401 152.115 364.531 139.571 364.064 126.349C364.064 125.942 364.064 125.535 364.064 125.128C364.061 115.689 367.333 106.438 373.507 98.4293C379.682 90.4203 388.511 83.9744 398.99 79.8252C400.857 79.0864 402.775 78.4224 404.746 77.8332C414.996 74.7846 426.052 73.9529 436.82 75.4204C450.622 77.3219 463.228 82.9317 472.604 91.3438C481.98 99.756 487.578 110.479 488.495 121.783C488.604 122.891 488.659 124.006 488.659 125.128Z" fill="#FEB286"/>
<g id="Group" opacity="0.1">
<path id="Vector 43" opacity="0.1" d="M404.651 79.0186L404.737 78.9765C402.767 79.5657 400.848 80.2297 398.981 80.9685C388.502 85.1177 379.673 91.5636 373.499 99.5726C367.324 107.582 364.052 116.832 364.055 126.272C364.055 126.679 364.055 127.085 364.055 127.492C365.992 127.45 367.897 127.079 369.646 126.405C384.834 120.668 393.919 103.119 397.525 90.8792C398.825 86.4955 400.048 81.5576 404.651 79.0186Z" fill="black"/>
<path id="Vector 44" opacity="0.1" d="M452.337 80.4284C447.406 78.5953 442.197 77.2959 436.846 76.5637C441.235 77.3807 445.154 79.3727 447.968 82.217C449.348 83.7347 450.492 85.3836 451.375 87.1267C443.083 84.1933 434.103 82.7524 425.055 82.9038C416.007 83.0552 407.108 84.7952 398.973 88.0035C402.882 94.9403 415.01 98.7208 423.106 101.253C431.972 104.021 440.929 106.553 449.979 108.849L441.97 103.589L460.061 105.917C460.256 103.004 459.828 100.085 458.796 97.29C462.263 99.5485 466.857 100.306 470.62 102.2C477.667 105.798 480.606 112.721 484.446 118.718C485.46 120.303 486.657 121.923 488.486 122.926C487.746 113.866 483.998 105.135 477.635 97.6547C471.273 90.1748 462.533 84.2233 452.337 80.4284Z" fill="black"/>
</g>
<path id="Vector 45" d="M404.651 77.8753L404.737 77.8333C402.767 78.4224 400.848 79.0864 398.981 79.8252C388.502 83.9744 379.673 90.4203 373.499 98.4294C367.324 106.438 364.052 115.689 364.055 125.129C364.055 125.535 364.055 125.942 364.055 126.349C365.992 126.307 367.897 125.936 369.646 125.262C384.834 119.524 393.919 101.975 397.525 89.736C398.825 85.3803 400.048 80.4214 404.651 77.8753Z" fill="#780505"/>
<path id="Vector 46" d="M452.337 79.2922C447.406 77.4591 442.197 76.1597 436.846 75.4275C441.235 76.2445 445.154 78.2365 447.968 81.0807C449.348 82.5985 450.492 84.2474 451.375 85.9905C443.083 83.0571 434.103 81.6162 425.055 81.7676C416.007 81.9189 407.108 83.659 398.973 86.8673C402.882 93.8041 415.01 97.5846 423.106 100.117C431.972 102.885 440.929 105.417 449.979 107.713L441.97 102.452L460.061 104.781C460.256 101.868 459.828 98.9492 458.796 96.1538C462.263 98.4123 466.857 99.1698 470.62 101.064C477.667 104.662 480.606 111.585 484.446 117.581C485.46 119.167 486.657 120.787 488.486 121.79C487.746 112.729 483.998 103.998 477.635 96.5185C471.273 89.0386 462.533 83.0871 452.337 79.2922Z" fill="#780505"/>
<path id="Vector 47" opacity="0.1" d="M356.947 116.817C356.947 116.817 421.095 52.2884 495.308 116.817L488.893 102.361C488.893 102.361 454.071 61.2171 429.339 70.0968C404.607 78.9765 380.318 85.2961 380.318 85.2961L356.947 116.817Z" fill="black"/>
<path id="Vector 48" d="M356.947 115.674C356.947 115.674 421.095 51.145 495.308 115.674L488.893 101.218C488.893 101.218 454.071 60.0738 429.339 68.9535C404.607 77.8332 380.318 84.1528 380.318 84.1528L356.947 115.674Z" fill="#375A7F"/>
<path id="Vector 49" opacity="0.1" d="M360.614 86.5726C360.614 86.5726 423.653 35.5951 491.641 85.6398" stroke="black" stroke-miterlimit="10"/>
<path id="Vector 50" d="M507.566 83.3252H501.238V112.356H507.566V83.3252Z" fill="#131314"/>
<path id="Vector 51" d="M492.794 102.109C498.579 102.109 504.126 103.968 508.217 107.277C512.307 110.587 514.605 115.075 514.605 119.756V120.892C514.605 125.572 512.307 130.061 508.217 133.37C504.126 136.68 498.579 138.539 492.794 138.539V102.109Z" fill="#FFD037"/>
<path id="Vector 52" d="M498.42 104.388C498.42 102.188 496.216 100.404 493.496 100.404C490.777 100.404 488.573 102.188 488.573 104.388V136.267C488.573 138.467 490.777 140.251 493.496 140.251C496.216 140.251 498.42 138.467 498.42 136.267V104.388Z" fill="#131314"/>
<path id="Vector 53" d="M344.039 112.924H350.367V83.8933H344.039V112.924Z" fill="#131314"/>
<path id="Vector 54" d="M358.81 139.107C353.026 139.107 347.478 137.248 343.388 133.939C339.298 130.629 337 126.141 337 121.46V120.324C337 118.006 337.564 115.712 338.66 113.571C339.756 111.43 341.363 109.484 343.388 107.846C345.413 106.207 347.818 104.907 350.464 104.02C353.11 103.133 355.946 102.677 358.81 102.677V139.107Z" fill="#FFD037"/>
<path id="Vector 55" d="M353.185 136.828C353.185 139.028 355.389 140.812 358.108 140.812C360.828 140.812 363.032 139.028 363.032 136.828V104.949C363.032 102.749 360.828 100.965 358.108 100.965C355.389 100.965 353.185 102.749 353.185 104.949V136.828Z" fill="#131314"/>
<path id="Vector 56" d="M500.492 52.2953C491.919 37.8746 473.246 20.4379 432.997 19.0421V19H432.512L418.252 19.5471V19.6032C378.272 21.0902 359.686 38.4638 351.139 52.8354C345.446 62.5781 342.424 73.2015 342.279 83.9775L347.203 83.8793L352.127 83.7881C352.339 74.1943 355.066 64.7463 360.128 56.0689C370.981 38.0289 390.954 28.4408 419.483 27.55L432.096 26.9819C460.642 27.8657 480.623 37.4678 491.468 55.5007C496.538 64.1814 499.271 73.6344 499.486 83.234L504.41 83.3252L509.334 83.4234C509.192 72.6532 506.176 62.0349 500.492 52.2953Z" fill="#FFD037"/>
</g>
</g>
</g>
</svg>
